# xmcd
#
# Track frame offsets: 
#        150
#        13067
#        39083
#        62616
#        94343
#        116532
#        139854
#        174811
#        191107
#
# Disc length: 2790 seconds
#
# Revision: 0
# Processed by: cddbd v1.5.2PL0 Copyright (c) Steve Scherf et al.
# Submitted via: ExactAudioCopy v0.99pb4
#
DISCID=700ae409
DTITLE=Stevie Ray Vaughan and Double Trouble - Live at Reading (bootleg)
DYEAR=1900
DGENRE=Blues
TTITLE0=Tell Me
TTITLE1=I'm Leaving You (Commit A Crime)
TTITLE2=Pride and Joy
TTITLE3=Texas Flood
TTITLE4=Testify
TTITLE5=So Excited
TTITLE6=Voodoo Chile
TTITLE7=Mary Had A Little Lamb
TTITLE8=Love Struck Baby
EXTD=
EXTT0=
EXTT1=
EXTT2=
EXTT3=
EXTT4=
EXTT5=
EXTT6=
EXTT7=
EXTT8=
PLAYORDER=
